<svg id="Layer_1" data-name="Layer 1" xmlns="http://www.w3.org/2000/svg" viewBox="0 0 192.91 93.02"><defs><style>.cls-1,.cls-2,.cls-5,.cls-6{fill:#968b83;}.cls-2{font-size:29.02px;letter-spacing:0.1em;}.cls-2,.cls-6{font-family:Gotham-Book, Gotham;}.cls-3{letter-spacing:0.06em;}.cls-4{letter-spacing:0.1em;}.cls-12,.cls-5{stroke:#968b83;stroke-miterlimit:10;stroke-width:1px;}.cls-6{font-size:13.3px;letter-spacing:-0.05em;}.cls-7{letter-spacing:-0.03em;}.cls-8{letter-spacing:-0.04em;}.cls-9{letter-spacing:-0.03em;}.cls-10{letter-spacing:-0.07em;}.cls-11{letter-spacing:-0.03em;}.cls-12{fill:none;}</style></defs><title>dlb-logo</title><path class="cls-1" d="M191.38,46.19h0a2.34,2.34,0,0,1,2.32-2.33A2.31,2.31,0,0,1,196,46.17h0a2.32,2.32,0,1,1-4.63,0Zm4.36,0h0a2,2,0,0,0-2-2.06,2.05,2.05,0,0,0-2,2.07h0a2,2,0,1,0,4.09,0ZM192.83,45h1c.48,0,.86.25.86.72a.71.71,0,0,1-.57.7l.65.91h-.46l-.59-.85h-.56v.85h-.37Zm1,1.17c.33,0,.52-.17.52-.42s-.2-.42-.52-.42h-.63v.84Z" transform="translate(-3.1 -3.73)"/><path class="cls-1" d="M179.64,84.55h-.74V84.3h1.73v.25h-.74v2h-.25Zm1.5-.25h.27l.87,1.34.87-1.34h.27v2.25h-.26v-1.8l-.87,1.3h0l-.87-1.3v1.8h-.25Z" transform="translate(-3.1 -3.73)"/><text class="cls-2" transform="translate(0 60.16)">D<tspan class="cls-3" x="25.59" y="0">O</tspan><tspan class="cls-4" x="52.12" y="0">WNLITE</tspan></text><path class="cls-1" d="M130.49,31c-1.91.14-3.9.29-4.94.39-.44.05-2.46-.08-4.58-.11,1.31-.73,3.52-2.15,4.59-2.92,1.38-1,4.38-4.27,2.87-2.88s-5.77.62-5,.24,10-13,8.78-11.92-7.16,2.64-10.3,1.63-6.14-4.89-8.41-6.15-8-1.7-9.3-.86c-.72,3.8,6,9.85,3,11.52-1.18,0-2.78-2.64-6-2.64a10.51,10.51,0,0,1-5.71-2.47c-2-1.54-3.32-3-5.36-3.08-4.39-.25-7.24,2.6-9,4.63a9.58,9.58,0,0,1,9.38-5.71c3.56.24,6.65,5.58,10.8,5.71s4.64,2.72,5.71,2.37-3.8-5.7-3.8-10.21c-.36-3.45-7.84-6.78-19.74-3.52-2.89.75-9.16,4.64-11.29,12.8a15.78,15.78,0,0,0,2.69,13.7c-2.55.94-7.48,2.74-10,3.37a65.21,65.21,0,0,0,7.44-1.63,81,81,0,0,1,13.13-2.62c3.41-.37,16.62,2,22.26,2.77-4,.72-11.56,4.56-12,4.78A57.62,57.62,0,0,1,104,34.92a36,36,0,0,1,7.31-1.31c.74,0,1.49-.13,2.24-.24h.1c3.41-.52,7-1.5,9.45-1.37a45.79,45.79,0,0,0,6.86-.49m-65.1,3.43-1.45.19a4.33,4.33,0,0,0,1.45-.19M87.55,38.8c1.59,1.13,5,.77,8.67-.9-4.29,1.81-9.33.43-8.67.9" transform="translate(-3.1 -3.73)"/><path class="cls-5" d="M120.75,31.35c-1.25.83-4.37.74-6,.89a48,48,0,0,1-11.43-.3c-1.62-.23-3.32-.59-4.95-.77s-2.89-.55-4.51-.78-3.27-.47-4.94-.64a25.37,25.37,0,0,0-5,.32c-1.63.16-3.2.52-4.83.76a39,39,0,0,0-7.63,1.86,71.91,71.91,0,0,1-6.89,2.24A65.28,65.28,0,0,0,72,33.3a81.09,81.09,0,0,1,13.12-2.62c3.43-.37,16.63,2,22.27,2.77-4,.72-11.56,4.56-12,4.78a57.44,57.44,0,0,1,8.34-3.31A36,36,0,0,1,111,33.61c.74,0,1.49-.13,2.24-.24h.09c3.42-.52,7-1.5,9.45-1.37a45.83,45.83,0,0,0,6.87-.49M64.57,34.93l-1.44.19a4.25,4.25,0,0,0,1.44-.19M87.32,38.8c1.59,1.13,5,.77,8.67-.9-4.29,1.81-9.33.43-8.67.9" transform="translate(-3.1 -3.73)"/><text class="cls-6" transform="translate(11.92 90.84)">C<tspan class="cls-7" x="9.22" y="0">OM</tspan><tspan class="cls-8" x="31.4" y="0">F</tspan><tspan class="cls-7" x="39.59" y="0">O</tspan><tspan class="cls-9" x="50.56" y="0">R</tspan><tspan class="cls-7" x="59.75" y="0">T </tspan><tspan class="cls-10" x="71.69" y="0">T</tspan><tspan class="cls-7" x="79.34" y="0">O THE </tspan><tspan x="124.26" y="0">C</tspan><tspan class="cls-11" x="133.48" y="0">ORE</tspan></text><line class="cls-12" x1="1.52" y1="69.69" x2="185.28" y2="69.69"/></svg>